<svg width="37" height="37" viewBox="0 0 37 37" fill="none" xmlns="http://www.w3.org/2000/svg">
<g clip-path="url(#clip0_1298_783)">
<path d="M30.3844 1H7.55801C5.94369 1 4.39548 1.64129 3.25398 2.78279C2.11248 3.92429 1.47119 5.47249 1.47119 7.08682V29.9132C1.47119 31.5275 2.11248 33.0757 3.25398 34.2172C4.39548 35.3587 5.94369 36 7.55801 36H30.3844C31.9987 36 33.5469 35.3587 34.6884 34.2172C35.8299 33.0757 36.4712 31.5275 36.4712 29.9132V7.08682C36.4712 5.47249 35.8299 3.92429 34.6884 2.78279C33.5469 1.64129 31.9987 1 30.3844 1Z" fill="#78EB7B"/>
<path d="M30.3844 1H7.55801C5.94369 1 4.39548 1.64129 3.25398 2.78279C2.11248 3.92429 1.47119 5.47249 1.47119 7.08682V29.9132C1.47378 30.7939 1.66875 31.6634 2.04248 32.4608C2.41621 33.2583 2.95967 33.9645 3.63483 34.53L35.0012 3.16205C34.4355 2.48717 33.7293 1.94402 32.9318 1.57057C32.1344 1.19712 31.2649 1.00239 30.3844 1Z" fill="#C9F7CA"/>
<path d="M30.3844 1H7.55801C5.94369 1 4.39548 1.64129 3.25398 2.78279C2.11248 3.92429 1.47119 5.47249 1.47119 7.08682V29.9132C1.47119 31.5275 2.11248 33.0757 3.25398 34.2172C4.39548 35.3587 5.94369 36 7.55801 36H30.3844C31.9987 36 33.5469 35.3587 34.6884 34.2172C35.8299 33.0757 36.4712 31.5275 36.4712 29.9132V7.08682C36.4712 5.47249 35.8299 3.92429 34.6884 2.78279C33.5469 1.64129 31.9987 1 30.3844 1Z" stroke="#191919" stroke-linecap="round" stroke-linejoin="round"/>
<path d="M30.3845 17.5488C30.3845 22.6906 25.2745 26.8604 18.9713 26.8604C17.6163 26.8633 16.2684 26.6649 14.9717 26.2717L8.41401 29.3263L10.9817 24.1988C9.94497 23.4217 9.09813 22.4195 8.50508 21.2675C7.91203 20.1156 7.58823 18.8441 7.55811 17.5488C7.55811 12.4133 12.6681 8.23877 18.9713 8.23877C25.2745 8.23877 30.3845 12.4133 30.3845 17.5488Z" fill="white" stroke="#191919" stroke-linecap="round" stroke-linejoin="round"/>
<path d="M14.0252 18.4997C13.9244 18.4997 13.8277 18.4597 13.7564 18.3883C13.6851 18.317 13.645 18.2203 13.645 18.1195C13.645 18.0186 13.6851 17.9219 13.7564 17.8506C13.8277 17.7793 13.9244 17.7393 14.0252 17.7393M14.0252 18.4997C14.1261 18.4997 14.2228 18.4597 14.2941 18.3883C14.3654 18.317 14.4055 18.2203 14.4055 18.1195C14.4055 18.0186 14.3654 17.9219 14.2941 17.8506C14.2228 17.7793 14.1261 17.7393 14.0252 17.7393M19.3532 18.4997C19.2584 18.491 19.1702 18.4472 19.106 18.3769C19.0418 18.3065 19.0062 18.2147 19.0062 18.1195C19.0062 18.0242 19.0418 17.9324 19.106 17.8621C19.1702 17.7918 19.2584 17.7479 19.3532 17.7393M19.3532 18.4997C19.454 18.4997 19.5508 18.4597 19.6221 18.3883C19.6934 18.317 19.7334 18.2203 19.7334 18.1195C19.7334 18.0186 19.6934 17.9219 19.6221 17.8506C19.5508 17.7793 19.454 17.7393 19.3532 17.7393M24.6764 18.4997C24.5815 18.491 24.4934 18.4472 24.4292 18.3769C24.365 18.3065 24.3294 18.2147 24.3294 18.1195C24.3294 18.0242 24.365 17.9324 24.4292 17.8621C24.4934 17.7918 24.5815 17.7479 24.6764 17.7393M24.6764 18.4997C24.7772 18.4997 24.8739 18.4597 24.9452 18.3883C25.0165 18.317 25.0566 18.2203 25.0566 18.1195C25.0566 18.0186 25.0165 17.9219 24.9452 17.8506C24.8739 17.7793 24.7772 17.7393 24.6764 17.7393" stroke="#191919"/>
</g>
<defs>
<clipPath id="clip0_1298_783">
<rect width="37" height="37" fill="white"/>
</clipPath>
</defs>
</svg>
