<svg width="35" height="35" viewBox="0 0 35 35" fill="none" xmlns="http://www.w3.org/2000/svg">
<g clip-path="url(#clip0_1298_763)">
<path d="M17.5 34.9985C27.1651 34.9985 35 27.1636 35 17.4985C35 7.83562 27.1651 0 17.5 0C7.8349 0 0 7.8349 0 17.4993C0 27.1636 7.8349 34.9985 17.5 34.9985Z" fill="#25B7D3"/>
<path d="M22.5912 8.59082L17.5002 11.1356L12.4092 8.59082L7.31885 11.1356V27.6804L12.4092 25.1356L17.5002 27.6804L22.5912 25.1356L27.6823 27.6804V11.1356L22.5912 8.59082Z" fill="#F0F1F1"/>
<path d="M7.31885 27.6804L12.4092 25.1356V8.59082L7.31885 11.1356V27.6804ZM17.5002 27.6804L22.5912 25.1356V8.59082L17.5002 11.1356V27.6804Z" fill="white"/>
<path d="M8.81549 22.5763C8.77541 22.5641 8.73814 22.5442 8.70582 22.5175C8.6735 22.4909 8.64677 22.4581 8.62718 22.4211C8.60759 22.3841 8.59552 22.3436 8.59167 22.3019C8.58783 22.2602 8.59227 22.2181 8.60476 22.1782C8.60476 22.1782 8.67549 21.9485 8.80674 21.5656C8.82029 21.5262 8.84149 21.4897 8.86912 21.4584C8.89675 21.4271 8.93028 21.4015 8.96779 21.3832C9.00531 21.3648 9.04606 21.3541 9.08774 21.3515C9.12942 21.3489 9.1712 21.3545 9.2107 21.368C9.2502 21.3816 9.28664 21.4028 9.31795 21.4304C9.34926 21.4581 9.37481 21.4916 9.39316 21.5291C9.41151 21.5666 9.42229 21.6074 9.42489 21.649C9.42749 21.6907 9.42185 21.7325 9.4083 21.772C9.34024 21.9689 9.2751 22.1667 9.21289 22.3655C9.20065 22.4055 9.18066 22.4426 9.15406 22.4748C9.12745 22.507 9.09477 22.5337 9.05786 22.5533C9.02095 22.5728 8.98055 22.5849 8.93897 22.5889C8.89738 22.5928 8.85542 22.5886 8.81549 22.5763ZM19.3549 21.0443C19.3186 21.0235 19.2868 20.9958 19.2613 20.9627C19.2358 20.9297 19.217 20.8919 19.2061 20.8516C19.1951 20.8113 19.1922 20.7692 19.1976 20.7277C19.2029 20.6863 19.2163 20.6463 19.2371 20.6101C19.2579 20.5738 19.2856 20.542 19.3187 20.5165C19.3517 20.491 19.3895 20.4722 19.4298 20.4613C19.4701 20.4503 19.5122 20.4474 19.5537 20.4528C19.5951 20.4581 19.6351 20.4715 19.6713 20.4923C19.9805 20.6695 20.3174 20.7081 20.6542 20.66C20.7061 20.6524 20.7591 20.6577 20.8084 20.6756C20.8577 20.6935 20.9018 20.7233 20.9368 20.7624C20.9718 20.8014 20.9965 20.8486 21.0088 20.8996C21.021 20.9506 21.0205 21.0038 21.0072 21.0545C20.9911 21.1153 20.9575 21.1701 20.9106 21.2119C20.8636 21.2538 20.8054 21.281 20.7432 21.29C20.2459 21.3608 19.7953 21.2973 19.3549 21.0443ZM21.5708 20.7038C21.5477 20.6688 21.5318 20.6297 21.524 20.5886C21.5162 20.5475 21.5166 20.5052 21.5252 20.4642C21.5338 20.4233 21.5504 20.3844 21.5742 20.3499C21.5979 20.3155 21.6282 20.286 21.6634 20.2634C21.9529 20.0738 22.2416 19.8186 22.5216 19.5043C22.5494 19.4731 22.5831 19.4476 22.6207 19.4294C22.6583 19.4112 22.6991 19.4006 22.7408 19.3981C22.7825 19.3957 22.8243 19.4015 22.8637 19.4152C22.9032 19.4289 22.9396 19.4503 22.9708 19.478C23.002 19.5058 23.0275 19.5395 23.0457 19.5771C23.0639 19.6147 23.0745 19.6555 23.077 19.6972C23.0794 19.7389 23.0736 19.7807 23.0599 19.8201C23.0462 19.8596 23.0248 19.896 22.9971 19.9272C22.6799 20.2845 22.3481 20.5762 22.0112 20.7964C21.9403 20.8418 21.8544 20.8576 21.7721 20.8403C21.6897 20.8229 21.6174 20.7739 21.5708 20.7038ZM9.41414 20.8059C9.3353 20.7758 9.27161 20.7157 9.23703 20.6387C9.20244 20.5618 9.19979 20.4742 9.22966 20.3953C9.3776 20.0069 9.53245 19.6211 9.69414 19.2382C9.70897 19.1976 9.73188 19.1605 9.76149 19.1291C9.7911 19.0977 9.82678 19.0726 9.86637 19.0554C9.90596 19.0382 9.94864 19.0292 9.99181 19.029C10.035 19.0288 10.0777 19.0373 10.1175 19.0541C10.1573 19.071 10.1932 19.0957 10.2231 19.1268C10.253 19.1579 10.2763 19.1948 10.2915 19.2352C10.3068 19.2756 10.3136 19.3186 10.3117 19.3618C10.3098 19.4049 10.2991 19.4472 10.2804 19.4861C10.1217 19.8618 9.9698 20.2403 9.82466 20.6214C9.80985 20.6605 9.78748 20.6963 9.75882 20.7267C9.73017 20.7571 9.69579 20.7816 9.65766 20.7988C9.61953 20.8159 9.57839 20.8253 9.53661 20.8266C9.49482 20.8278 9.4532 20.8207 9.41414 20.8059ZM18.3712 20.1132C18.121 19.7649 17.8991 19.3972 17.7077 19.0136C17.684 18.967 17.6721 18.9154 17.6729 18.8632C17.6738 18.811 17.6875 18.7598 17.7128 18.7141C17.738 18.6684 17.7741 18.6296 17.8178 18.6011C17.8616 18.5726 17.9116 18.5552 17.9636 18.5505C18.0263 18.5455 18.0891 18.559 18.1442 18.5893C18.1993 18.6196 18.2443 18.6655 18.2735 18.7212C18.4879 19.1368 18.6877 19.4686 18.8846 19.7354C18.9094 19.7691 18.9273 19.8074 18.9373 19.848C18.9473 19.8887 18.9492 19.9309 18.9429 19.9722C18.9366 20.0136 18.9222 20.0533 18.9006 20.0892C18.8789 20.125 18.8504 20.1562 18.8167 20.181C18.783 20.2058 18.7448 20.2237 18.7041 20.2337C18.6635 20.2437 18.6213 20.2456 18.5799 20.2393C18.5386 20.233 18.4988 20.2186 18.463 20.197C18.4272 20.1753 18.396 20.1469 18.3712 20.1132ZM23.3259 18.9961C23.2904 18.9738 23.2597 18.9447 23.2355 18.9105C23.2114 18.8762 23.1943 18.8375 23.1852 18.7966C23.1761 18.7557 23.1752 18.7134 23.1826 18.6722C23.19 18.631 23.2055 18.5916 23.2282 18.5564C23.4426 18.218 23.638 17.869 23.8144 17.5093C23.8519 17.4336 23.9178 17.3758 23.9978 17.3488C24.0778 17.3217 24.1653 17.3275 24.241 17.3649C24.3167 17.4023 24.3745 17.4683 24.4015 17.5483C24.4286 17.6283 24.4228 17.7158 24.3854 17.7915C24.1982 18.1716 23.9916 18.5406 23.7656 18.8984C23.7432 18.9337 23.714 18.9643 23.6798 18.9883C23.6455 19.0124 23.6069 19.0294 23.566 19.0385C23.5252 19.0476 23.483 19.0485 23.4417 19.0412C23.4005 19.0339 23.3612 19.0186 23.3259 18.9961ZM10.3555 18.5221C10.2796 18.4858 10.2211 18.421 10.1929 18.3418C10.1646 18.2625 10.1688 18.1753 10.2046 18.0992C10.3839 17.7215 10.5735 17.3491 10.7733 16.9821C10.8164 16.9129 10.8843 16.8628 10.9632 16.8421C11.042 16.8215 11.1258 16.8318 11.1972 16.8711C11.2687 16.9103 11.3224 16.9754 11.3473 17.053C11.3722 17.1307 11.3664 17.2149 11.3311 17.2884C11.1372 17.6442 10.9532 18.0054 10.7791 18.3719C10.743 18.4479 10.6782 18.5065 10.5989 18.5348C10.5196 18.5631 10.4323 18.5588 10.3562 18.5228M17.1681 17.8863C16.9464 17.3999 16.805 17.0864 16.6533 16.7685C16.631 16.7212 16.6207 16.6693 16.6232 16.6172C16.6256 16.565 16.6408 16.5143 16.6675 16.4694C16.6941 16.4245 16.7313 16.3868 16.7759 16.3596C16.8204 16.3324 16.871 16.3166 16.9231 16.3135C16.9859 16.3105 17.0482 16.326 17.1023 16.3582C17.1564 16.3903 17.1998 16.4377 17.2272 16.4943C17.3817 16.8173 17.5283 17.1418 17.7471 17.6223C17.7766 17.6982 17.776 17.7825 17.7454 17.8579C17.7148 17.9334 17.6564 17.9942 17.5824 18.028C17.5083 18.0618 17.4241 18.0659 17.347 18.0396C17.27 18.0132 17.206 17.9584 17.1681 17.8863ZM11.5127 16.3426C11.4778 16.3196 11.4478 16.2899 11.4244 16.2552C11.401 16.2206 11.3846 16.1816 11.3763 16.1407C11.368 16.0997 11.3678 16.0575 11.3758 16.0164C11.3838 15.9754 11.3999 15.9363 11.423 15.9015C11.6818 15.5121 11.9422 15.1694 12.1981 14.8836C12.2256 14.8515 12.2593 14.8252 12.2971 14.8062C12.3349 14.7873 12.3762 14.7761 12.4184 14.7733C12.4606 14.7705 12.5029 14.7761 12.5429 14.7899C12.5829 14.8037 12.6198 14.8253 12.6513 14.8535C12.6828 14.8817 12.7084 14.9159 12.7266 14.9541C12.7447 14.9923 12.7551 15.0337 12.757 15.076C12.759 15.1182 12.7524 15.1605 12.7378 15.2002C12.7233 15.2399 12.7009 15.2763 12.6721 15.3072C12.4115 15.6058 12.1715 15.9218 11.9538 16.2529C11.9072 16.3233 11.8345 16.3722 11.7518 16.389C11.6691 16.4058 11.5831 16.3891 11.5127 16.3426ZM16.0904 15.7039C15.8541 15.313 15.6259 15.0155 15.3933 14.7953C15.332 14.7373 15.2963 14.6573 15.2939 14.573C15.2916 14.4886 15.3229 14.4067 15.3809 14.3454C15.4389 14.2841 15.5189 14.2484 15.6033 14.2461C15.6877 14.2437 15.7695 14.275 15.8308 14.333C16.1057 14.5934 16.3689 14.9339 16.6351 15.3743C16.6743 15.4463 16.6843 15.5307 16.6629 15.6099C16.6415 15.689 16.5904 15.7569 16.5202 15.7994C16.4501 15.8418 16.3662 15.8556 16.2862 15.8378C16.2061 15.82 16.136 15.7721 16.0904 15.7039ZM13.0928 14.4555C13.0711 14.4197 13.0568 14.38 13.0506 14.3386C13.0443 14.2972 13.0464 14.255 13.0565 14.2144C13.0667 14.1738 13.0848 14.1356 13.1098 14.102C13.1348 14.0685 13.1662 14.0402 13.2022 14.0188C13.6346 13.7592 14.0866 13.6345 14.5796 13.6979C14.6633 13.7088 14.7393 13.7524 14.7908 13.8193C14.8424 13.8862 14.8653 13.9708 14.8544 14.0545C14.8436 14.1382 14.8 14.2142 14.7331 14.2658C14.6662 14.3174 14.5816 14.3402 14.4979 14.3294C14.1479 14.2835 13.8343 14.3819 13.5288 14.5649C13.4565 14.6082 13.3699 14.621 13.2882 14.6005C13.2064 14.58 13.1361 14.5279 13.0928 14.4555ZM24.4875 16.8035C24.4485 16.7883 24.413 16.7656 24.3828 16.7367C24.3526 16.7078 24.3284 16.6732 24.3116 16.635C24.2949 16.5967 24.2858 16.5555 24.2849 16.5137C24.284 16.4719 24.2914 16.4304 24.3066 16.3915C24.4423 16.0415 24.5137 15.8154 24.5144 15.8133C24.543 15.737 24.5997 15.6746 24.6728 15.6388C24.746 15.603 24.83 15.5966 24.9078 15.6209C24.9855 15.6451 25.051 15.6982 25.0908 15.7693C25.1306 15.8403 25.1417 15.9239 25.1218 16.0028C25.1189 16.013 25.0446 16.2508 24.8994 16.6226C24.8687 16.7012 24.8081 16.7643 24.7308 16.7982C24.6536 16.8321 24.5661 16.834 24.4875 16.8035ZM26.3155 14.4103L25.5863 13.6812L26.3155 12.952C26.3522 12.9149 26.3793 12.8693 26.3944 12.8192C26.4094 12.7691 26.4119 12.7162 26.4017 12.6649C26.3914 12.6137 26.3688 12.5657 26.3357 12.5252C26.3026 12.4848 26.2601 12.453 26.212 12.4328C26.1538 12.4091 26.0901 12.403 26.0285 12.4152C25.9669 12.4274 25.9103 12.4573 25.8656 12.5014L25.1364 13.2305L24.4065 12.5014C24.377 12.4718 24.3419 12.4484 24.3033 12.4324C24.2647 12.4164 24.2234 12.4082 24.1816 12.4082C24.1398 12.4082 24.0984 12.4164 24.0598 12.4324C24.0212 12.4484 23.9862 12.4718 23.9566 12.5014C23.9271 12.5309 23.9037 12.566 23.8877 12.6046C23.8717 12.6432 23.8635 12.6846 23.8635 12.7263C23.8635 12.7681 23.8717 12.8095 23.8877 12.8481C23.9037 12.8867 23.9271 12.9217 23.9566 12.9513L24.6858 13.6804L23.9566 14.4103C23.9271 14.4399 23.9037 14.4749 23.8877 14.5135C23.8717 14.5521 23.8635 14.5935 23.8635 14.6353C23.8635 14.6771 23.8717 14.7184 23.8877 14.757C23.9037 14.7956 23.9271 14.8307 23.9566 14.8602C23.9862 14.8898 24.0212 14.9132 24.0598 14.9292C24.0984 14.9452 24.1398 14.9534 24.1816 14.9534C24.2234 14.9534 24.2647 14.9452 24.3033 14.9292C24.3419 14.9132 24.377 14.8898 24.4065 14.8602L25.1357 14.1311L25.8649 14.8602C25.9245 14.92 26.0055 14.9536 26.0899 14.9537C26.1744 14.9537 26.2554 14.9203 26.3151 14.8606C26.3749 14.8009 26.4085 14.72 26.4086 14.6355C26.4086 14.5511 26.3752 14.4701 26.3155 14.4103Z" fill="#FA5655"/>
</g>
<defs>
<clipPath id="clip0_1298_763">
<rect width="35" height="35" fill="white"/>
</clipPath>
</defs>
</svg>
