<svg width="35" height="35" viewBox="0 0 35 35" fill="none" xmlns="http://www.w3.org/2000/svg">
<path d="M9.479 21.875H25.5207V30.625H9.479V21.875Z" fill="#BF360C"/>
<path d="M7.29167 21.8748C8.9025 21.8748 10.2083 20.569 10.2083 18.9582C10.2083 17.3473 8.9025 16.0415 7.29167 16.0415C5.68084 16.0415 4.375 17.3473 4.375 18.9582C4.375 20.569 5.68084 21.8748 7.29167 21.8748Z" fill="#FFA726"/>
<path d="M27.7082 21.8748C29.319 21.8748 30.6248 20.569 30.6248 18.9582C30.6248 17.3473 29.319 16.0415 27.7082 16.0415C26.0973 16.0415 24.7915 17.3473 24.7915 18.9582C24.7915 20.569 26.0973 21.8748 27.7082 21.8748Z" fill="#FFA726"/>
<path d="M28.4375 13.8542C28.4375 4.59377 6.5625 7.8021 6.5625 13.8542V21.1458C6.5625 27.1979 11.4479 32.0833 17.5 32.0833C23.5521 32.0833 28.4375 27.1979 28.4375 21.1458V13.8542Z" fill="#FFB74D"/>
<path d="M21.8748 20.4167C22.6803 20.4167 23.3332 19.7637 23.3332 18.9583C23.3332 18.1529 22.6803 17.5 21.8748 17.5C21.0694 17.5 20.4165 18.1529 20.4165 18.9583C20.4165 19.7637 21.0694 20.4167 21.8748 20.4167Z" fill="#784719"/>
<path d="M13.1248 20.4167C13.9303 20.4167 14.5832 19.7637 14.5832 18.9583C14.5832 18.1529 13.9303 17.5 13.1248 17.5C12.3194 17.5 11.6665 18.1529 11.6665 18.9583C11.6665 19.7637 12.3194 20.4167 13.1248 20.4167Z" fill="#784719"/>
<path d="M17.5 1.4585C11.3021 1.4585 2.1875 5.68766 2.1875 25.9585L9.47917 30.6252V17.5002L21.7292 10.3543L25.5208 15.3127V30.6252L32.8125 24.646C32.8125 20.5627 32.1563 3.50016 21.5833 3.50016L20.5625 1.4585H17.5Z" fill="#FF5722"/>
<path d="M32.8125 17.5002C32.375 17.5002 32.0833 17.7918 32.0833 18.2293V13.1252C32.0833 6.7085 26.8333 1.4585 20.4167 1.4585H13.8542C13.4167 1.4585 13.125 1.75016 13.125 2.18766C13.125 2.62516 13.4167 2.91683 13.8542 2.91683H20.4167C26.0312 2.91683 30.625 7.51058 30.625 13.1252V20.4168C30.625 20.8543 30.9167 21.146 31.3542 21.146C31.7917 21.146 32.0833 20.8543 32.0833 20.4168V21.8752C32.0833 24.7189 29.8229 26.9793 26.9792 26.9793H17.5C17.0625 26.9793 16.7708 27.271 16.7708 27.7085C16.7708 28.146 17.0625 28.4377 17.5 28.4377H26.9792C30.625 28.4377 33.5417 25.521 33.5417 21.8752V18.2293C33.5417 17.7918 33.25 17.5002 32.8125 17.5002Z" fill="#757575"/>
<path d="M32.8125 16.0415H32.0833C31.2812 16.0415 30.625 16.6978 30.625 17.4998V20.4165C30.625 21.2186 31.2812 21.8748 32.0833 21.8748H32.8125C33.6146 21.8748 34.2708 21.2186 34.2708 20.4165V17.4998C34.2708 16.6978 33.6146 16.0415 32.8125 16.0415Z" fill="#37474F"/>
<path d="M17.4998 29.1667C18.3053 29.1667 18.9582 28.5137 18.9582 27.7083C18.9582 26.9029 18.3053 26.25 17.4998 26.25C16.6944 26.25 16.0415 26.9029 16.0415 27.7083C16.0415 28.5137 16.6944 29.1667 17.4998 29.1667Z" fill="#37474F"/>
</svg>
