<svg width="35" height="35" viewBox="0 0 35 35" fill="none" xmlns="http://www.w3.org/2000/svg">
<path fill-rule="evenodd" clip-rule="evenodd" d="M21.3148 4.53242L17.1017 2.00586L12.8886 4.53242L7.99514 4.96555L6.07014 9.48492L2.3667 12.7115L3.46701 17.4999L2.3667 22.2884L6.07014 25.5149L7.99514 30.0343L12.8886 30.4674L17.1017 32.994L21.3148 30.4674L26.2083 30.0343L28.1333 25.5149L31.8389 22.2884L30.7342 17.4999L31.8367 12.7115L28.1311 9.48492L26.2061 4.96555L21.3148 4.53242ZM12.0311 14.2187C12.0311 13.9286 12.1463 13.6504 12.3514 13.4453C12.5565 13.2402 12.8347 13.1249 13.1248 13.1249C13.4149 13.1249 13.6931 13.2402 13.8982 13.4453C14.1033 13.6504 14.2186 13.9286 14.2186 14.2187C14.2186 14.5088 14.1033 14.787 13.8982 14.9921C13.6931 15.1972 13.4149 15.3124 13.1248 15.3124C12.8347 15.3124 12.5565 15.1972 12.3514 14.9921C12.1463 14.787 12.0311 14.5088 12.0311 14.2187ZM13.1248 10.9374C12.2546 10.9374 11.42 11.2831 10.8046 11.8985C10.1893 12.5138 9.84357 13.3484 9.84357 14.2187C9.84357 15.0889 10.1893 15.9235 10.8046 16.5389C11.42 17.1542 12.2546 17.4999 13.1248 17.4999C13.9951 17.4999 14.8297 17.1542 15.445 16.5389C16.0604 15.9235 16.4061 15.0889 16.4061 14.2187C16.4061 13.3484 16.0604 12.5138 15.445 11.8985C14.8297 11.2831 13.9951 10.9374 13.1248 10.9374ZM12.8054 23.743L23.743 12.8055L22.1942 11.2568L11.2567 22.1943L12.8054 23.743ZM20.7811 21.8749C20.7811 21.5848 20.8963 21.3066 21.1014 21.1015C21.3065 20.8964 21.5847 20.7812 21.8748 20.7812C22.1649 20.7812 22.4431 20.8964 22.6482 21.1015C22.8533 21.3066 22.9686 21.5848 22.9686 21.8749C22.9686 22.165 22.8533 22.4432 22.6482 22.6483C22.4431 22.8534 22.1649 22.9687 21.8748 22.9687C21.5847 22.9687 21.3065 22.8534 21.1014 22.6483C20.8963 22.4432 20.7811 22.165 20.7811 21.8749ZM21.8748 18.5937C21.0046 18.5937 20.17 18.9394 19.5546 19.5547C18.9393 20.1701 18.5936 21.0047 18.5936 21.8749C18.5936 22.7452 18.9393 23.5798 19.5546 24.1951C20.17 24.8105 21.0046 25.1562 21.8748 25.1562C22.7451 25.1562 23.5797 24.8105 24.195 24.1951C24.8104 23.5798 25.1561 22.7452 25.1561 21.8749C25.1561 21.0047 24.8104 20.1701 24.195 19.5547C23.5797 18.9394 22.7451 18.5937 21.8748 18.5937Z" fill="#FF3535"/>
</svg>
