<svg width="35" height="35" viewBox="0 0 35 35" fill="none" xmlns="http://www.w3.org/2000/svg">
<g clip-path="url(#clip0_1298_772)">
<circle cx="17.5" cy="17.5" r="17.5" fill="#C8E6FF"/>
<path d="M7.75 8.31966C7.75 8.16858 7.81002 8.02368 7.91685 7.91685C8.02368 7.81002 8.16858 7.75 8.31966 7.75H11.7376C11.8887 7.75 12.0336 7.81002 12.1404 7.91685C12.2473 8.02368 12.3073 8.16858 12.3073 8.31966C12.3073 8.47075 12.2473 8.61564 12.1404 8.72247C12.0336 8.82931 11.8887 8.88932 11.7376 8.88932H8.88932V11.7376C8.88932 11.8887 8.82931 12.0336 8.72247 12.1404C8.61564 12.2473 8.47075 12.3073 8.31966 12.3073C8.16858 12.3073 8.02368 12.2473 7.91685 12.1404C7.81002 12.0336 7.75 11.8887 7.75 11.7376V8.31966ZM21.4219 8.31966C21.4219 8.16858 21.4819 8.02368 21.5887 7.91685C21.6956 7.81002 21.8405 7.75 21.9915 7.75H25.4095C25.5606 7.75 25.7055 7.81002 25.8123 7.91685C25.9191 8.02368 25.9792 8.16858 25.9792 8.31966V11.7376C25.9792 11.8887 25.9191 12.0336 25.8123 12.1404C25.7055 12.2473 25.5606 12.3073 25.4095 12.3073C25.2584 12.3073 25.1135 12.2473 25.0067 12.1404C24.8999 12.0336 24.8398 11.8887 24.8398 11.7376V8.88932H21.9915C21.8405 8.88932 21.6956 8.82931 21.5887 8.72247C21.4819 8.61564 21.4219 8.47075 21.4219 8.31966ZM8.31966 21.4219C8.47075 21.4219 8.61564 21.4819 8.72247 21.5887C8.82931 21.6956 8.88932 21.8405 8.88932 21.9915V24.8398H11.7376C11.8887 24.8398 12.0336 24.8999 12.1404 25.0067C12.2473 25.1135 12.3073 25.2584 12.3073 25.4095C12.3073 25.5606 12.2473 25.7055 12.1404 25.8123C12.0336 25.9191 11.8887 25.9792 11.7376 25.9792H8.31966C8.16858 25.9792 8.02368 25.9191 7.91685 25.8123C7.81002 25.7055 7.75 25.5606 7.75 25.4095V21.9915C7.75 21.8405 7.81002 21.6956 7.91685 21.5887C8.02368 21.4819 8.16858 21.4219 8.31966 21.4219ZM25.4095 21.4219C25.5606 21.4219 25.7055 21.4819 25.8123 21.5887C25.9191 21.6956 25.9792 21.8405 25.9792 21.9915V25.4095C25.9792 25.5606 25.9191 25.7055 25.8123 25.8123C25.7055 25.9191 25.5606 25.9792 25.4095 25.9792H21.9915C21.8405 25.9792 21.6956 25.9191 21.5887 25.8123C21.4819 25.7055 21.4219 25.5606 21.4219 25.4095C21.4219 25.2584 21.4819 25.1135 21.5887 25.0067C21.6956 24.8999 21.8405 24.8398 21.9915 24.8398H24.8398V21.9915C24.8398 21.8405 24.8999 21.6956 25.0067 21.5887C25.1135 21.4819 25.2584 21.4219 25.4095 21.4219ZM12.3073 12.3073H13.4466V13.4466H12.3073V12.3073Z" fill="url(#paint0_linear_1298_772)"/>
<path d="M15.7254 10.0288H10.0288V15.7254H15.7254V10.0288ZM11.1681 11.1681H14.5861V14.5861H11.1681V11.1681ZM13.4468 20.2827H12.3075V21.422H13.4468V20.2827Z" fill="url(#paint1_linear_1298_772)"/>
<path d="M15.7254 18.0037H10.0288V23.7004H15.7254V18.0037ZM11.1681 19.1431H14.5861V22.561H11.1681V19.1431ZM20.2827 12.3071H21.422V13.4465H20.2827V12.3071Z" fill="url(#paint2_linear_1298_772)"/>
<path d="M18.0041 10.0288H23.7007V15.7254H18.0041V10.0288ZM19.1434 11.1681V14.5861H22.5614V11.1681H19.1434ZM16.8647 16.8647V19.1434H18.0041V20.2827H16.8647V21.422H19.1434V19.1434H20.2827V21.422H21.422V20.2827H23.7007V19.1434H20.2827V16.8647H16.8647ZM19.1434 19.1434H18.0041V18.0041H19.1434V19.1434ZM23.7007 21.422H22.5614V22.5614H20.2827V23.7007H23.7007V21.422ZM19.1434 23.7007V22.5614H16.8647V23.7007H19.1434Z" fill="url(#paint3_linear_1298_772)"/>
<path d="M21.4219 18.0041H23.7005V16.8647H21.4219V18.0041Z" fill="url(#paint4_linear_1298_772)"/>
</g>
<defs>
<linearGradient id="paint0_linear_1298_772" x1="16.8646" y1="7.75" x2="16.8646" y2="25.9792" gradientUnits="userSpaceOnUse">
<stop stop-color="#FF7F41"/>
<stop offset="1" stop-color="#C82BA0"/>
</linearGradient>
<linearGradient id="paint1_linear_1298_772" x1="12.8771" y1="10.0288" x2="12.8771" y2="21.422" gradientUnits="userSpaceOnUse">
<stop stop-color="#FF7F41"/>
<stop offset="1" stop-color="#C82BA0"/>
</linearGradient>
<linearGradient id="paint2_linear_1298_772" x1="15.7254" y1="12.3071" x2="15.7254" y2="23.7004" gradientUnits="userSpaceOnUse">
<stop stop-color="#FF7F41"/>
<stop offset="1" stop-color="#C82BA0"/>
</linearGradient>
<linearGradient id="paint3_linear_1298_772" x1="20.2827" y1="10.0288" x2="20.2827" y2="23.7007" gradientUnits="userSpaceOnUse">
<stop stop-color="#FF7F41"/>
<stop offset="1" stop-color="#C82BA0"/>
</linearGradient>
<linearGradient id="paint4_linear_1298_772" x1="22.5612" y1="16.8647" x2="22.5612" y2="18.0041" gradientUnits="userSpaceOnUse">
<stop stop-color="#FF7F41"/>
<stop offset="1" stop-color="#C82BA0"/>
</linearGradient>
<clipPath id="clip0_1298_772">
<rect width="35" height="35" fill="white"/>
</clipPath>
</defs>
</svg>
