<svg width="35" height="35" viewBox="0 0 35 35" fill="none" xmlns="http://www.w3.org/2000/svg">
<g clip-path="url(#clip0_1298_756)">
<circle cx="17.5" cy="17.5" r="17.5" fill="#D4D995"/>
<path d="M26.4444 28L19.4444 21C18.8889 21.4444 18.25 21.7963 17.5278 22.0556C16.8056 22.3148 16.037 22.4444 15.2222 22.4444C13.2037 22.4444 11.4956 21.7452 10.0978 20.3467C8.7 18.9481 8.00074 17.24 8 15.2222C7.99926 13.2044 8.69852 11.4963 10.0978 10.0978C11.497 8.69926 13.2052 8 15.2222 8C17.2393 8 18.9478 8.69926 20.3478 10.0978C21.7478 11.4963 22.4467 13.2044 22.4444 15.2222C22.4444 16.037 22.3148 16.8056 22.0556 17.5278C21.7963 18.25 21.4444 18.8889 21 19.4444L28 26.4444L26.4444 28ZM15.2222 20.2222C16.6111 20.2222 17.7919 19.7363 18.7644 18.7644C19.737 17.7926 20.223 16.6119 20.2222 15.2222C20.2215 13.8326 19.7356 12.6522 18.7644 11.6811C17.7933 10.71 16.6126 10.2237 15.2222 10.2222C13.8319 10.2207 12.6515 10.707 11.6811 11.6811C10.7107 12.6552 10.2244 13.8356 10.2222 15.2222C10.22 16.6089 10.7063 17.7896 11.6811 18.7644C12.6559 19.7393 13.8363 20.2252 15.2222 20.2222Z" fill="url(#paint0_linear_1298_756)"/>
</g>
<defs>
<linearGradient id="paint0_linear_1298_756" x1="18" y1="8" x2="18" y2="28" gradientUnits="userSpaceOnUse">
<stop stop-color="#FF7F41"/>
<stop offset="1" stop-color="#C82BA0"/>
</linearGradient>
<clipPath id="clip0_1298_756">
<rect width="35" height="35" fill="white"/>
</clipPath>
</defs>
</svg>
