<svg width="35" height="35" viewBox="0 0 35 35" fill="none" xmlns="http://www.w3.org/2000/svg">
<path d="M29.0209 18.4624C28.7871 18.1962 28.6581 17.8541 28.6581 17.4999C28.6581 17.1456 28.7871 16.8035 29.0209 16.5374L30.8876 14.4374C31.0932 14.2079 31.221 13.9192 31.2524 13.6127C31.2839 13.3062 31.2174 12.9975 31.0626 12.7311L28.1459 7.68528C27.9926 7.41917 27.7593 7.20823 27.4791 7.08253C27.1989 6.95684 26.8861 6.92281 26.5855 6.98528L23.8438 7.53945C23.4949 7.61153 23.1318 7.55343 22.8228 7.37612C22.5138 7.1988 22.2805 6.91453 22.1667 6.57695L21.2771 3.9082C21.1793 3.61855 20.9929 3.36696 20.7443 3.18901C20.4957 3.01106 20.1975 2.91574 19.8917 2.91653H14.0584C13.7404 2.89994 13.4257 2.98789 13.1623 3.16695C12.899 3.34602 12.7015 3.60635 12.6001 3.9082L11.7834 6.57695C11.6696 6.91453 11.4363 7.1988 11.1273 7.37612C10.8183 7.55343 10.4552 7.61153 10.1063 7.53945L7.29172 6.98528C7.00669 6.94501 6.71611 6.98998 6.4566 7.11455C6.19709 7.23912 5.98024 7.4377 5.83339 7.68528L2.91672 12.7311C2.75799 12.9946 2.68663 13.3015 2.71282 13.6079C2.73901 13.9144 2.86142 14.2047 3.06255 14.4374L4.91464 16.5374C5.14843 16.8035 5.27737 17.1456 5.27737 17.4999C5.27737 17.8541 5.14843 18.1962 4.91464 18.4624L3.06255 20.5624C2.86142 20.7951 2.73901 21.0854 2.71282 21.3918C2.68663 21.6983 2.75799 22.0052 2.91672 22.2686L5.83339 27.3145C5.98665 27.5806 6.22002 27.7915 6.50021 27.9172C6.78041 28.0429 7.09313 28.0769 7.3938 28.0145L10.1355 27.4603C10.4843 27.3882 10.8475 27.4463 11.1565 27.6236C11.4654 27.8009 11.6988 28.0852 11.8126 28.4228L12.7021 31.0915C12.8036 31.3934 13.0011 31.6537 13.2644 31.8328C13.5278 32.0119 13.8425 32.0998 14.1605 32.0832H19.9938C20.2995 32.084 20.5978 31.9887 20.8464 31.8107C21.095 31.6328 21.2814 31.3812 21.3792 31.0915L22.2688 28.4228C22.3826 28.0852 22.6159 27.8009 22.9249 27.6236C23.2338 27.4463 23.597 27.3882 23.9459 27.4603L26.6876 28.0145C26.9882 28.0769 27.301 28.0429 27.5811 27.9172C27.8613 27.7915 28.0947 27.5806 28.248 27.3145L31.1646 22.2686C31.3195 22.0022 31.3859 21.6936 31.3545 21.387C31.3231 21.0805 31.1953 20.7918 30.9896 20.5624L29.0209 18.4624ZM26.848 20.4165L28.0146 21.729L26.148 24.9665L24.4271 24.6165C23.3768 24.4018 22.2842 24.5802 21.3568 25.1179C20.4293 25.6556 19.7315 26.5151 19.3959 27.5332L18.8417 29.1665H15.1084L14.5834 27.504C14.2478 26.4859 13.55 25.6264 12.6225 25.0887C11.6951 24.5511 10.6025 24.3727 9.55214 24.5874L7.8313 24.9374L5.93547 21.7145L7.10214 20.402C7.81957 19.5998 8.2162 18.5614 8.2162 17.4853C8.2162 16.4091 7.81957 15.3707 7.10214 14.5686L5.93547 13.2561L7.80214 10.0478L9.52297 10.3978C10.5733 10.6125 11.6659 10.4341 12.5934 9.89641C13.5208 9.35875 14.2186 8.49927 14.5542 7.48112L15.1084 5.8332H18.8417L19.3959 7.4957C19.7315 8.51385 20.4293 9.37333 21.3568 9.91099C22.2842 10.4487 23.3768 10.6271 24.4271 10.4124L26.148 10.0624L28.0146 13.2999L26.848 14.6124C26.1386 15.4126 25.7469 16.445 25.7469 17.5145C25.7469 18.5839 26.1386 19.6163 26.848 20.4165ZM16.9751 11.6665C15.8213 11.6665 14.6935 12.0087 13.7342 12.6496C12.7749 13.2906 12.0273 14.2016 11.5858 15.2675C11.1442 16.3334 11.0287 17.5063 11.2538 18.6379C11.4789 19.7695 12.0345 20.8089 12.8503 21.6247C13.6661 22.4405 14.7055 22.996 15.837 23.2211C16.9686 23.4462 18.1415 23.3307 19.2074 22.8892C20.2733 22.4477 21.1843 21.7 21.8253 20.7407C22.4663 19.7814 22.8084 18.6536 22.8084 17.4999C22.8084 15.9528 22.1938 14.469 21.0998 13.3751C20.0059 12.2811 18.5221 11.6665 16.9751 11.6665ZM16.9751 20.4165C16.3982 20.4165 15.8343 20.2455 15.3546 19.925C14.875 19.6045 14.5012 19.149 14.2804 18.616C14.0596 18.0831 14.0019 17.4966 14.1144 16.9309C14.227 16.3651 14.5048 15.8454 14.9127 15.4375C15.3206 15.0296 15.8403 14.7518 16.406 14.6392C16.9718 14.5267 17.5583 14.5845 18.0912 14.8052C18.6242 15.026 19.0797 15.3998 19.4002 15.8795C19.7207 16.3591 19.8917 16.923 19.8917 17.4999C19.8917 18.2734 19.5844 19.0153 19.0374 19.5623C18.4905 20.1092 17.7486 20.4165 16.9751 20.4165Z" fill="url(#paint0_linear_1298_827)"/>
<defs>
<linearGradient id="paint0_linear_1298_827" x1="17.0348" y1="2.91455" x2="17.0348" y2="32.0852" gradientUnits="userSpaceOnUse">
<stop stop-color="#FF7F41"/>
<stop offset="1" stop-color="#C82BA0"/>
</linearGradient>
</defs>
</svg>
