<svg width="33" height="33" viewBox="0 0 33 33" fill="none" xmlns="http://www.w3.org/2000/svg">
<path d="M16.5238 29.5674C15.8817 29.567 15.2406 29.5187 14.6057 29.423C11.8252 28.9833 9.27283 27.623 7.35757 25.5599C5.44231 23.4969 4.27505 20.8506 4.04285 18.0452C3.81065 15.2397 4.52695 12.4376 6.07696 10.0877C7.62697 7.73787 9.92096 5.97637 12.5913 5.08552C12.8771 4.98886 13.1842 4.97381 13.4781 5.04206C13.772 5.11031 14.0411 5.25916 14.2551 5.47189C14.487 5.6977 14.6516 5.98353 14.7305 6.29748C14.8095 6.61142 14.7995 6.94113 14.7019 7.24977C14.3349 8.44224 14.1708 9.68792 14.2166 10.9348C14.3207 12.8902 14.928 14.7857 15.9798 16.4375C17.0315 18.0893 18.492 19.4415 20.2198 20.3631C21.7757 21.2477 23.5327 21.7179 25.3224 21.7285C25.6341 21.7328 25.9386 21.8224 26.2029 21.9874C26.4673 22.1524 26.6815 22.3866 26.8223 22.6646C26.9631 22.9427 27.0251 23.2539 27.0017 23.5647C26.9782 23.8755 26.8701 24.1739 26.6892 24.4276C25.5185 26.0236 23.9878 27.3208 22.2215 28.2138C20.4552 29.1069 18.5031 29.5707 16.5238 29.5674ZM13.1138 6.37527C13.0834 6.37533 13.0532 6.38044 13.0244 6.39039C11.3528 6.94511 9.83583 7.88662 8.59681 9.13832C7.35779 10.39 6.43177 11.9165 5.89409 13.5937C5.35642 15.2708 5.22227 17.0512 5.50257 18.79C5.78287 20.5288 6.4697 22.1768 7.50718 23.6C8.54465 25.0232 9.90347 26.1814 11.4731 26.9803C13.0426 27.7793 14.7787 28.1964 16.5399 28.1977C18.3011 28.199 20.0378 27.7846 21.6086 26.988C23.1794 26.1914 24.5399 25.0353 25.5796 23.6136C25.6128 23.567 25.6322 23.5119 25.6353 23.4547C25.6385 23.3975 25.6254 23.3405 25.5974 23.2905C25.5729 23.2357 25.5332 23.1889 25.483 23.1558C25.4328 23.1227 25.3743 23.1045 25.3142 23.1035C23.2952 23.092 21.3127 22.5637 19.5557 21.569C17.6191 20.5324 15.9833 19.0128 14.8069 17.1578C13.6306 15.3028 12.9536 13.1752 12.8416 10.9815C12.7921 9.58179 12.978 8.18369 13.3916 6.84552C13.412 6.77766 13.414 6.70558 13.3973 6.63671C13.3806 6.56783 13.3459 6.50464 13.2967 6.45364C13.2733 6.42864 13.2449 6.40876 13.2135 6.39527C13.182 6.38178 13.148 6.37497 13.1138 6.37527Z" fill="#374151"/>
</svg>
