<svg width="33" height="34" viewBox="0 0 33 34" fill="none" xmlns="http://www.w3.org/2000/svg">
<path fill-rule="evenodd" clip-rule="evenodd" d="M21.9961 21.3457C23.7919 21.3457 25.3209 22.4938 25.8874 24.0957H27.4961C27.8608 24.0957 28.2105 24.2406 28.4684 24.4984C28.7262 24.7563 28.8711 25.106 28.8711 25.4707C28.8711 25.8354 28.7262 26.1851 28.4684 26.443C28.2105 26.7008 27.8608 26.8457 27.4961 26.8457H25.8874C25.6033 27.6508 25.0765 28.348 24.3795 28.8411C23.6826 29.3343 22.8499 29.5991 21.9961 29.5991C21.1423 29.5991 20.3096 29.3343 19.6127 28.8411C18.9157 28.348 18.3889 27.6508 18.1048 26.8457H5.49609C5.13142 26.8457 4.78168 26.7008 4.52382 26.443C4.26596 26.1851 4.12109 25.8354 4.12109 25.4707C4.12109 25.106 4.26596 24.7563 4.52382 24.4984C4.78168 24.2406 5.13142 24.0957 5.49609 24.0957H18.1048C18.3893 23.2911 18.9163 22.5946 19.6132 22.102C20.3102 21.6095 21.1427 21.3453 21.9961 21.3457ZM21.9961 24.0957C21.6314 24.0957 21.2817 24.2406 21.0238 24.4984C20.766 24.7563 20.6211 25.106 20.6211 25.4707C20.6211 25.8354 20.766 26.1851 21.0238 26.443C21.2817 26.7008 21.6314 26.8457 21.9961 26.8457C22.3608 26.8457 22.7105 26.7008 22.9684 26.443C23.2262 26.1851 23.3711 25.8354 23.3711 25.4707C23.3711 25.106 23.2262 24.7563 22.9684 24.4984C22.7105 24.2406 22.3608 24.0957 21.9961 24.0957ZM10.9961 13.0957C11.806 13.0956 12.5979 13.3339 13.2733 13.7809C13.9486 14.2278 14.4775 14.8637 14.7938 15.6092L14.886 15.8457H27.4961C27.8466 15.8461 28.1836 15.9803 28.4385 16.2209C28.6933 16.4615 28.8467 16.7903 28.8672 17.1401C28.8878 17.49 28.7739 17.8345 28.549 18.1032C28.3241 18.372 28.005 18.5447 27.657 18.5861L27.4961 18.5957H14.8873C14.6101 19.3798 14.1025 20.0619 13.4309 20.5525C12.7592 21.0431 11.9551 21.3193 11.1238 21.3448C10.2925 21.3704 9.47283 21.1442 8.77235 20.6958C8.07186 20.2474 7.52321 19.5978 7.19834 18.8322L7.10484 18.5957H5.49609C5.14563 18.5953 4.80855 18.4611 4.55371 18.2205C4.29888 17.98 4.14552 17.6511 4.12498 17.3013C4.10444 16.9514 4.21827 16.6069 4.44321 16.3382C4.66814 16.0694 4.98721 15.8967 5.33522 15.8553L5.49609 15.8457H7.10484C7.38931 15.0411 7.91632 14.3446 8.61325 13.852C9.31017 13.3595 10.1427 13.0953 10.9961 13.0957ZM10.9961 15.8457C10.6314 15.8457 10.2817 15.9906 10.0238 16.2484C9.76596 16.5063 9.6211 16.856 9.6211 17.2207C9.6211 17.5854 9.76596 17.9351 10.0238 18.193C10.2817 18.4508 10.6314 18.5957 10.9961 18.5957C11.3608 18.5957 11.7105 18.4508 11.9684 18.193C12.2262 17.9351 12.3711 17.5854 12.3711 17.2207C12.3711 16.856 12.2262 16.5063 11.9684 16.2484C11.7105 15.9906 11.3608 15.8457 10.9961 15.8457ZM21.9961 4.8457C23.7919 4.8457 25.3209 5.99383 25.8874 7.5957H27.4961C27.8608 7.5957 28.2105 7.74057 28.4684 7.99843C28.7262 8.25629 28.8711 8.60603 28.8711 8.9707C28.8711 9.33538 28.7262 9.68511 28.4684 9.94298C28.2105 10.2008 27.8608 10.3457 27.4961 10.3457H25.8874C25.6033 11.1508 25.0765 11.848 24.3795 12.3411C23.6826 12.8343 22.8499 13.0991 21.9961 13.0991C21.1423 13.0991 20.3096 12.8343 19.6127 12.3411C18.9157 11.848 18.3889 11.1508 18.1048 10.3457H5.49609C5.13142 10.3457 4.78168 10.2008 4.52382 9.94298C4.26596 9.68511 4.12109 9.33538 4.12109 8.9707C4.12109 8.60603 4.26596 8.25629 4.52382 7.99843C4.78168 7.74057 5.13142 7.5957 5.49609 7.5957H18.1048C18.3893 6.79111 18.9163 6.09456 19.6132 5.60203C20.3102 5.1095 21.1427 4.84526 21.9961 4.8457ZM21.9961 7.5957C21.6314 7.5957 21.2817 7.74057 21.0238 7.99843C20.766 8.25629 20.6211 8.60603 20.6211 8.9707C20.6211 9.33538 20.766 9.68511 21.0238 9.94298C21.2817 10.2008 21.6314 10.3457 21.9961 10.3457C22.3608 10.3457 22.7105 10.2008 22.9684 9.94298C23.2262 9.68511 23.3711 9.33538 23.3711 8.9707C23.3711 8.60603 23.2262 8.25629 22.9684 7.99843C22.7105 7.74057 22.3608 7.5957 21.9961 7.5957Z" fill="#374151"/>
</svg>
