<svg width="32" height="34" viewBox="0 0 32 34" fill="none" xmlns="http://www.w3.org/2000/svg">
<path d="M26.086 17.7331C25.8758 17.4822 25.7599 17.1596 25.7599 16.8256C25.7599 16.4916 25.8758 16.169 26.086 15.9181L27.7641 13.9381C27.9491 13.7218 28.0639 13.4496 28.0922 13.1605C28.1204 12.8715 28.0607 12.5805 27.9215 12.3293L25.2994 7.57185C25.1616 7.32094 24.9518 7.12206 24.6999 7.00354C24.448 6.88503 24.1669 6.85294 23.8966 6.91185L21.4318 7.43435C21.1182 7.50231 20.7917 7.44753 20.5139 7.28035C20.2361 7.11317 20.0263 6.84514 19.9241 6.52685L19.1243 4.0106C19.0364 3.7375 18.8688 3.50029 18.6453 3.33251C18.4218 3.16473 18.1537 3.07486 17.8788 3.0756H12.6347C12.3488 3.05995 12.0658 3.14287 11.8291 3.31171C11.5924 3.48054 11.4148 3.726 11.3236 4.0106L10.5894 6.52685C10.4872 6.84514 10.2774 7.11317 9.99959 7.28035C9.72184 7.44753 9.39534 7.50231 9.08171 7.43435L6.55139 6.91185C6.29515 6.87387 6.03392 6.91628 5.80062 7.03373C5.56731 7.15118 5.37237 7.33841 5.24034 7.57185L2.61825 12.3293C2.47555 12.5777 2.41139 12.8671 2.43494 13.156C2.45849 13.445 2.56853 13.7187 2.74935 13.9381L4.41438 15.9181C4.62457 16.169 4.74048 16.4916 4.74048 16.8256C4.74048 17.1596 4.62457 17.4822 4.41438 17.7331L2.74935 19.7131C2.56853 19.9325 2.45849 20.2062 2.43494 20.4952C2.41139 20.7841 2.47555 21.0735 2.61825 21.3218L5.24034 26.0793C5.37813 26.3303 5.58793 26.5291 5.83982 26.6477C6.09172 26.7662 6.37286 26.7983 6.64316 26.7393L9.10793 26.2168C9.42156 26.1489 9.74806 26.2037 10.0258 26.3708C10.3036 26.538 10.5134 26.8061 10.6156 27.1243L11.4154 29.6406C11.5066 29.9252 11.6841 30.1707 11.9209 30.3395C12.1576 30.5083 12.4405 30.5912 12.7264 30.5756H17.9706C18.2455 30.5763 18.5136 30.4865 18.7371 30.3187C18.9606 30.1509 19.1282 29.9137 19.2161 29.6406L20.0159 27.1243C20.1181 26.8061 20.3279 26.538 20.6057 26.3708C20.8834 26.2037 21.2099 26.1489 21.5236 26.2168L23.9883 26.7393C24.2586 26.7983 24.5398 26.7662 24.7917 26.6477C25.0436 26.5291 25.2534 26.3303 25.3911 26.0793L28.0132 21.3218C28.1524 21.0707 28.2122 20.7797 28.1839 20.4907C28.1557 20.2016 28.0408 19.9294 27.8559 19.7131L26.086 17.7331ZM24.1325 19.5756L25.1814 20.8131L23.5032 23.8656L21.9562 23.5356C21.012 23.3332 20.0297 23.5014 19.1959 24.0083C18.3621 24.5153 17.7348 25.3256 17.4331 26.2856L16.9349 27.8256H13.5786L13.1066 26.2581C12.8049 25.2981 12.1776 24.4878 11.3438 23.9808C10.51 23.4739 9.52776 23.3057 8.58351 23.5081L7.03648 23.8381L5.33212 20.7993L6.38095 19.5618C7.02593 18.8056 7.38251 17.8265 7.38251 16.8118C7.38251 15.7972 7.02593 14.8181 6.38095 14.0618L5.33212 12.8243L7.01026 9.79935L8.55729 10.1293C9.50154 10.3318 10.4838 10.1636 11.3176 9.65662C12.1514 9.14969 12.7787 8.33932 13.0804 7.37935L13.5786 5.8256H16.9349L17.4331 7.3931C17.7348 8.35307 18.3621 9.16343 19.1959 9.67037C20.0297 10.1773 21.012 10.3455 21.9562 10.1431L23.5032 9.8131L25.1814 12.8656L24.1325 14.1031C23.4948 14.8576 23.1427 15.831 23.1427 16.8393C23.1427 17.8477 23.4948 18.8211 24.1325 19.5756ZM15.2567 11.3256C14.2195 11.3256 13.2056 11.6482 12.3432 12.2525C11.4808 12.8569 10.8087 13.7158 10.4117 14.7208C10.0148 15.7258 9.91097 16.8317 10.1133 17.8986C10.3157 18.9655 10.8151 19.9455 11.5485 20.7147C12.282 21.4839 13.2164 22.0077 14.2337 22.2199C15.2509 22.4321 16.3054 22.3232 17.2636 21.9069C18.2219 21.4907 19.0409 20.7857 19.6171 19.8812C20.1934 18.9768 20.5009 17.9134 20.5009 16.8256C20.5009 15.3669 19.9484 13.968 18.965 12.9365C17.9815 11.9051 16.6476 11.3256 15.2567 11.3256ZM15.2567 19.5756C14.7381 19.5756 14.2312 19.4143 13.8 19.1121C13.3688 18.81 13.0327 18.3805 12.8342 17.878C12.6358 17.3755 12.5839 16.8225 12.685 16.2891C12.7862 15.7557 13.0359 15.2657 13.4026 14.8811C13.7694 14.4965 14.2366 14.2345 14.7452 14.1284C15.2538 14.0223 15.7811 14.0768 16.2602 14.2849C16.7393 14.4931 17.1488 14.8455 17.4369 15.2978C17.7251 15.75 17.8788 16.2817 17.8788 16.8256C17.8788 17.5549 17.6026 18.2544 17.1108 18.7701C16.6191 19.2859 15.9522 19.5756 15.2567 19.5756Z" fill="#374151"/>
</svg>
